<svg version="1.1" id="Layer_1" xmlns="http://www.w3.org/2000/svg" xmlns:xlink="http://www.w3.org/1999/xlink" x="0px" y="0px"
	 width="100%" viewBox="0 0 1024 1024" enable-background="new 0 0 1024 1024" xml:space="preserve">
<path fill="#141922" opacity="1.000000" stroke="none" 
	d="
M570.000000,1025.000000 
	C380.000000,1025.000000 190.500000,1025.000000 1.000000,1025.000000 
	C1.000000,683.666687 1.000000,342.333344 1.000000,1.000000 
	C342.333344,1.000000 683.666687,1.000000 1025.000000,1.000000 
	C1025.000000,342.333344 1025.000000,683.666687 1025.000000,1025.000000 
	C873.500000,1025.000000 722.000000,1025.000000 570.000000,1025.000000 
M282.000793,582.739441 
	C281.766083,582.898804 281.616150,583.116455 281.464996,583.448853 
	C281.464996,583.448853 281.400482,583.528809 280.930847,583.776978 
	C280.582489,584.171143 280.234161,584.565308 279.295074,585.248718 
	C276.832336,587.740417 274.369598,590.232117 271.400879,592.985657 
	C271.211670,593.307190 271.022491,593.628784 270.918549,593.932617 
	C270.918549,593.932617 270.885284,593.852112 270.259186,594.279785 
	C267.339508,597.752197 268.738800,600.630188 271.490631,603.435486 
	C271.490631,603.435486 271.557617,603.530029 271.706482,603.825378 
	C271.706482,603.825378 271.985260,604.003357 272.246643,604.597656 
	C274.078156,605.952576 275.909637,607.307495 277.795288,609.382263 
	C278.183746,609.638184 278.572235,609.894104 278.940033,610.066040 
	C278.940033,610.066040 278.860321,610.099609 279.159424,610.600830 
	C280.496552,610.445251 281.833649,610.289734 283.085114,610.104126 
	C283.085114,610.104126 283.075775,610.194458 283.619110,610.072937 
	C283.858826,609.811157 284.098541,609.549377 284.242401,609.343750 
	C284.242401,609.343750 284.329987,609.412048 284.812714,609.241089 
	C285.009430,608.976379 285.206146,608.711670 285.480042,608.480103 
	C285.480042,608.480103 285.560486,608.455994 286.027069,608.203125 
	C286.499329,607.690247 286.971588,607.177307 287.556091,606.591003 
	C287.556091,606.591003 287.609222,606.467896 288.076630,606.222473 
	C288.417847,605.827087 288.759094,605.431702 289.623596,604.833557 
	C290.099060,604.268799 290.574554,603.703979 291.596069,602.872681 
	C292.126740,602.271057 292.657379,601.669495 293.688385,600.856506 
	C294.149261,600.310059 294.610107,599.763672 295.581421,598.981079 
	C295.787811,598.676575 295.994202,598.372009 296.065399,598.071045 
	C296.065399,598.071045 296.083954,598.204956 296.598267,597.989624 
	C296.800293,597.685852 297.002319,597.382141 297.072998,597.074585 
	C297.072998,597.074585 297.085632,597.205383 297.598480,596.990662 
	C297.799194,596.686401 297.999939,596.382202 298.102509,596.092468 
	C298.102509,596.092468 298.137726,596.185242 298.668335,595.923401 
	C299.177673,595.330444 299.687042,594.737488 300.101166,594.110229 
	C300.101166,594.110229 300.089539,594.210693 300.610931,594.005249 
	C300.817017,593.702332 301.023102,593.399414 301.099091,593.102478 
	C301.099091,593.102478 301.127197,593.229614 301.650330,593.001099 
	C301.755615,592.669739 301.860931,592.338318 302.191559,591.462830 
	C302.813568,590.713501 303.435577,589.964172 304.707733,589.184204 
	C305.212067,588.853821 305.716400,588.523438 306.128906,588.132629 
	C306.128906,588.132629 306.092072,588.236206 306.639038,588.024109 
	C306.874390,587.718201 307.109741,587.412231 307.715668,586.986206 
	C307.951477,586.833679 308.081390,586.617493 308.625702,586.041870 
	C308.865479,585.727112 309.105286,585.412415 309.716034,584.982788 
	C309.951569,584.831299 310.081482,584.616028 310.627930,584.044189 
	C310.866882,583.728943 311.105835,583.413757 311.905518,582.780396 
	C314.965668,579.603577 318.025848,576.426758 321.596436,572.990906 
	C321.824036,572.689575 322.051666,572.388184 322.670624,571.953552 
	C322.917145,571.789856 323.057831,571.561035 323.589630,570.997009 
	C323.791168,570.685486 323.992737,570.373962 324.060028,570.060669 
	C324.060028,570.060669 324.071594,570.194458 324.579468,569.966797 
	C324.789124,569.666687 324.998810,569.366638 325.621246,568.915039 
	C325.877075,568.733948 326.022583,568.487732 326.538116,567.919189 
	C326.747467,567.628845 326.956848,567.338562 327.588684,566.877136 
	C327.846710,566.683777 327.997498,566.427429 328.641327,565.728271 
	C331.309296,563.226929 332.286804,560.634644 328.947449,557.393799 
	C328.781738,557.127441 328.544098,556.969055 327.986115,556.402771 
	C327.686707,556.174011 327.387268,555.945251 326.787140,555.168884 
	C325.267975,553.752563 323.748840,552.336243 321.968597,550.429199 
	C321.662140,550.231384 321.355682,550.033569 321.065216,549.926270 
	C321.065216,549.926270 321.151886,549.895569 320.871552,549.366028 
	C320.269379,548.851318 319.667206,548.336609 318.897034,547.401367 
	C318.707855,547.141418 318.453796,546.991394 317.860046,546.477783 
	C317.422668,546.162842 316.985291,545.847961 316.544678,545.341675 
	C316.544678,545.341675 316.391266,545.227173 316.268066,545.036743 
	C316.268066,545.036743 316.046265,544.989624 315.746765,544.496155 
	C315.163269,544.005676 314.579803,543.515198 313.832184,542.735168 
	C313.832184,542.735168 313.538727,542.578064 313.466492,542.563293 
	C313.466492,542.563293 313.409790,542.610352 313.190918,542.136536 
	C312.899719,541.956421 312.608521,541.776306 312.267517,541.698242 
	C312.267517,541.698242 312.377838,541.671570 312.138184,541.181824 
	C311.822784,541.009949 311.507385,540.838074 311.217590,540.777100 
	C311.217590,540.777100 311.309967,540.710571 311.043274,540.185974 
	C310.437469,539.700562 309.831665,539.215149 309.146912,538.833740 
	C309.146912,538.833740 309.265717,538.887878 309.051117,538.326660 
	C308.740479,538.081421 308.429810,537.836121 307.993958,537.238281 
	C307.837616,537.019958 307.625519,536.901917 307.054291,536.375610 
	C306.734283,536.150208 306.414276,535.924805 305.779633,535.138855 
	C303.560211,533.077637 301.340820,531.016418 298.810150,528.384399 
	C297.413086,527.115662 296.015991,525.846863 294.532288,524.518188 
	C294.532288,524.518188 294.426941,524.518677 294.206726,524.079712 
	C293.996307,523.807495 293.722595,523.636841 293.183411,523.904846 
	C293.183411,523.904846 293.421600,523.592102 293.206940,523.127747 
	C292.925842,522.945251 292.644714,522.762817 292.226013,522.832031 
	C292.226013,522.832031 292.411346,522.613159 292.188354,522.138855 
	C291.895844,521.958008 291.603333,521.777161 291.289398,521.711548 
	C291.289398,521.711548 291.398651,521.669067 291.184204,521.179260 
	C290.891907,520.987244 290.599609,520.795166 290.284332,520.713501 
	C290.284332,520.713501 290.389709,520.673279 290.161804,520.180786 
	C289.856415,519.997437 289.551056,519.814087 289.294434,519.715454 
	C289.294434,519.715454 289.344238,519.631348 289.019470,519.062256 
	C286.383942,516.607971 283.748383,514.153625 280.876007,511.218536 
	C280.320801,510.785492 279.765594,510.352448 278.926483,509.429810 
	C278.462585,509.125732 277.998657,508.821625 277.522125,508.348694 
	C277.522125,508.348694 277.388123,508.245331 277.010040,507.777618 
	C273.434814,503.853424 270.580841,505.830017 267.958038,508.963196 
	C267.958038,508.963196 267.898193,508.860565 267.286865,509.144897 
	C265.487183,510.812073 263.660950,512.451721 261.894257,514.153137 
	C259.503265,516.455872 258.973114,518.821167 261.916534,521.038330 
	C261.916534,521.038330 261.791229,521.166809 262.070099,521.767151 
	C263.878357,523.641357 265.686584,525.515625 267.538391,527.378113 
	C267.538391,527.378113 267.583344,527.373535 267.789520,527.847290 
	C268.068787,528.036194 268.348053,528.225098 268.650330,528.286377 
	C268.650330,528.286377 268.548370,528.366516 268.761658,528.899658 
	C269.164337,529.292969 269.567047,529.686340 270.266296,530.670959 
	C273.114502,533.470642 275.962677,536.270325 279.090607,539.600403 
	C279.687958,540.122559 280.285309,540.644775 280.908630,541.081360 
	C280.908630,541.081360 280.819489,541.074158 281.039642,541.576294 
	C281.337372,541.777100 281.635071,541.977966 281.944122,542.060364 
	C281.944122,542.060364 281.825104,542.061829 282.062866,542.552917 
	C282.358521,542.756531 282.654175,542.960144 283.190460,543.703003 
	C283.353729,544.742432 283.517029,545.781921 283.165833,546.956299 
	C282.767731,547.300964 282.369629,547.645630 281.454712,548.127686 
	C280.930786,548.602356 280.406860,549.077087 279.322998,549.817383 
	C278.830902,550.177551 278.338837,550.537720 277.934753,550.920715 
	C277.934753,550.920715 277.898193,550.837524 277.331696,550.912659 
	C276.821075,551.140503 276.310455,551.368286 275.188141,551.729065 
	C274.790802,551.856201 274.393463,551.983337 273.059906,552.065552 
	C270.572113,552.077393 268.083618,552.056335 265.596619,552.106750 
	C256.334534,552.294373 247.072922,552.505432 237.389587,552.601074 
	C237.084579,552.596130 236.811539,552.687195 235.894592,552.809570 
	C234.538803,553.494385 233.183029,554.179138 231.910553,554.892517 
	C231.910553,554.892517 231.917862,554.804810 231.390808,554.990173 
	C231.169525,555.278809 230.948242,555.567383 230.865494,555.832275 
	C230.865494,555.832275 230.811707,555.702393 230.277039,555.897095 
	C229.850754,556.263550 229.424469,556.629944 228.373978,557.245789 
	C221.745590,562.826782 215.117203,568.407776 207.934677,574.455383 
	C207.934677,567.324585 208.099106,561.488342 207.806595,555.675171 
	C207.742126,554.394226 206.057098,553.194885 204.909912,551.279846 
	C203.633545,550.536804 202.366745,549.776672 201.079315,549.053284 
	C187.091888,541.194153 175.733154,530.800110 172.554718,514.446228 
	C170.924438,506.058044 171.384888,497.208282 171.394348,488.567657 
	C171.416626,468.218414 179.640060,452.022247 197.281982,441.502197 
	C202.543015,438.364990 208.835938,435.691833 214.824081,435.286133 
	C230.571564,434.219299 246.445496,433.750061 262.206482,434.450439 
	C285.597015,435.489929 303.669739,449.531830 309.787140,472.355621 
	C314.041901,488.230042 314.704926,504.701385 307.491058,520.481689 
	C306.632812,522.359192 306.479584,525.890930 307.634918,527.125977 
	C312.596924,532.429810 318.170074,537.161865 323.815704,542.374817 
	C329.679138,535.760620 332.973175,528.302002 333.756470,520.558960 
	C335.174988,506.537567 336.408661,492.284790 335.468750,478.279694 
	C333.170013,444.027008 308.612946,416.690582 274.477661,412.063385 
	C255.705750,409.518738 236.362778,410.989227 217.277679,411.009644 
	C199.115128,411.029053 184.406631,418.829834 171.182877,431.031738 
	C157.963028,443.230011 149.831116,457.627960 148.426376,475.446167 
	C147.616974,485.712616 147.911316,496.074982 147.906891,506.394257 
	C147.897522,528.247742 156.499451,546.032898 173.532486,559.748840 
	C173.532486,559.748840 173.581635,559.760986 173.767868,560.080322 
	C173.931168,560.277710 174.136902,560.408203 174.671417,560.511414 
	C174.671417,560.511414 174.749039,560.232971 174.813721,560.890808 
	C175.170425,561.141174 175.527130,561.391541 176.065475,561.921143 
	C176.250687,562.062256 176.459503,562.126160 177.047333,562.627319 
	C177.607178,562.897461 178.167038,563.167542 178.756821,563.319946 
	C178.756821,563.319946 178.639832,563.352722 178.903748,563.827148 
	C179.235489,563.964111 179.567230,564.101135 179.892166,564.137390 
	C179.892166,564.137390 179.796967,564.171082 180.115158,564.664551 
	C180.634598,564.931641 181.154037,565.198730 181.748520,565.392822 
	C181.748520,565.392822 181.648010,565.363525 181.917435,565.829834 
	C182.251083,565.954041 182.584732,566.078247 182.913727,566.108459 
	C182.913727,566.108459 182.823456,566.134766 183.196243,566.632629 
	C183.761536,566.882812 184.326843,567.132935 185.149734,567.737671 
	C185.396790,567.911560 185.671356,568.001160 186.262848,568.411255 
	C186.467987,568.676697 186.709137,568.903870 186.988297,569.022583 
	C186.988297,569.022583 186.920853,569.042053 186.942688,569.972778 
	C187.005402,575.979797 187.068115,581.986877 187.015991,588.661255 
	C187.054306,589.109436 187.092606,589.557556 187.025330,590.829834 
	C187.630508,593.613586 188.235687,596.397400 188.855209,599.074341 
	C188.855209,599.074341 188.747940,599.084534 188.853439,599.693604 
	C189.196976,600.181763 189.540512,600.669861 189.925171,601.065796 
	C189.925171,601.065796 189.827866,601.038818 189.999268,601.686523 
	C190.305359,602.001160 190.611435,602.315857 191.161072,603.231079 
	C197.187592,608.510620 201.249771,608.787170 207.878433,603.427795 
	C217.734299,595.459290 227.310318,587.144653 237.551422,579.027466 
	C238.040268,578.885925 238.529099,578.744385 239.262039,578.925293 
	C239.262039,578.925293 239.650650,578.813354 240.487366,578.829407 
	C243.100861,578.602966 245.713120,578.198425 248.328064,578.180420 
	C260.878540,578.093750 273.429688,578.111511 286.037628,578.520081 
	C285.907349,578.786133 285.857117,579.066528 285.299377,579.680786 
	C285.121063,580.053406 284.942719,580.426025 284.670532,580.515564 
	C284.670532,580.515564 284.377502,580.571228 283.995605,580.775513 
	C283.755005,580.959595 283.604248,581.200073 283.520111,581.550354 
	C283.520111,581.550354 283.461884,581.550171 283.066132,581.730347 
	C282.806091,581.891418 282.640472,582.120728 282.444092,582.454712 
	C282.444092,582.454712 282.362671,582.556702 282.000793,582.739441 
M457.980591,520.519836 
	C449.541809,498.010254 441.102997,475.500671 432.602814,452.827362 
	C426.645050,452.827362 420.827728,453.019501 415.031647,452.751801 
	C411.803192,452.602661 410.513489,453.808228 409.423431,456.780518 
	C398.639557,486.186035 387.666290,515.522034 376.770111,544.886475 
	C375.660004,547.878174 374.703033,550.926697 373.504059,554.451355 
	C378.168915,554.451355 381.815216,554.372559 385.456726,554.471069 
	C390.126831,554.597412 393.386444,553.259644 394.878296,548.177795 
	C396.675537,542.055420 399.237823,536.157715 401.489594,530.107178 
	C415.262024,530.107178 428.884247,530.107178 442.542816,530.107178 
	C445.212769,537.129517 447.794830,544.059448 450.509674,550.936890 
	C451.016205,552.220093 452.096283,554.327148 452.843201,554.298035 
	C458.507721,554.077026 464.155182,553.418701 470.151215,552.865051 
	C466.119232,542.190857 462.167725,531.729736 457.980591,520.519836 
M815.671326,573.513550 
	C815.671326,576.267639 815.671326,579.021790 815.671326,581.705078 
	C821.320251,581.705078 826.872498,581.705078 832.481323,581.705078 
	C832.481323,569.192261 832.481323,556.993652 832.481323,544.856079 
	C846.447510,561.336426 868.546875,555.415588 878.360229,544.643555 
	C886.478882,535.731873 889.269775,525.087769 888.489014,513.417786 
	C887.791321,502.988464 884.071777,493.736084 875.941956,486.754761 
	C869.540833,481.257996 862.093811,478.621155 853.553711,478.702087 
	C844.929260,478.783875 838.118042,482.389282 832.266907,489.045776 
	C832.547791,486.153198 832.769043,483.874542 833.015808,481.333008 
	C826.931702,481.333008 821.233276,481.333008 815.675110,481.333008 
	C815.675110,511.945343 815.675110,542.225525 815.671326,573.513550 
M606.509521,485.906372 
	C607.729736,484.509613 608.949951,483.112885 610.577515,481.249786 
	C603.780273,481.249786 597.984436,481.211182 592.190002,481.283691 
	C591.085327,481.297546 589.628113,481.385254 588.941650,482.058685 
	C583.764099,487.138000 578.641907,492.282288 573.698425,497.588837 
	C570.268127,501.271057 567.149109,505.243378 563.115173,510.001160 
	C563.115173,489.480225 563.115173,470.309448 563.115173,451.122192 
	C557.404724,451.122192 551.986877,451.122192 546.341675,451.122192 
	C546.341675,485.381897 546.341675,519.382507 546.341675,553.100647 
	C552.044189,553.100647 557.277954,553.100647 563.016541,553.100647 
	C563.016541,541.930969 563.016541,531.214600 563.016541,519.425354 
	C564.970947,521.552856 566.221375,522.794617 567.336731,524.147705 
	C574.104187,532.358215 580.790222,540.636536 587.626465,548.789062 
	C589.170654,550.630554 591.094238,553.291809 593.028687,553.461426 
	C599.656860,554.042969 606.367493,553.684631 614.256165,553.684631 
	C602.432068,539.421753 591.683899,526.456726 580.906555,513.456482 
	C589.458496,504.243469 597.727844,495.334991 606.509521,485.906372 
M739.519409,492.093903 
	C731.257751,503.050232 728.956238,515.207581 732.818359,528.308594 
	C737.371948,543.755066 748.288940,552.496277 763.859802,554.580872 
	C778.254150,556.507935 790.527588,551.193237 798.881531,539.238708 
	C807.883057,526.357666 808.144958,512.364685 801.231079,498.335205 
	C790.826843,477.223511 758.516357,470.288177 739.519409,492.093903 
M703.390015,550.012817 
	C718.694031,540.785889 725.219482,525.388855 720.938232,507.453827 
	C717.290344,492.171906 707.357544,482.471008 692.132507,479.463104 
	C677.816223,476.634766 664.891602,480.651184 655.658630,492.453308 
	C646.024658,504.768005 644.385498,518.996216 650.794922,532.973938 
	C660.117676,553.304688 682.069580,560.175537 703.390015,550.012817 
M496.173431,494.555511 
	C504.087494,490.663574 512.507507,491.474976 515.746887,497.492676 
	C518.083801,501.833893 521.279541,501.990234 524.996582,501.840027 
	C527.964722,501.720062 530.912781,501.103577 535.354431,500.508575 
	C533.070923,496.188629 531.638916,491.917297 528.956299,488.683319 
	C518.963318,476.636688 495.721771,474.904968 483.637207,484.940002 
	C476.346832,490.993988 473.602997,499.775787 476.397125,508.123383 
	C479.350525,516.946838 486.628601,520.162659 494.789551,521.852905 
	C500.133362,522.959717 505.709656,522.990234 511.014465,524.222961 
	C514.600769,525.056396 518.573975,526.488770 519.035156,531.213562 
	C519.525208,536.233826 515.765442,538.238831 512.094177,539.815369 
	C502.915588,543.756958 494.296783,540.094299 489.191406,530.426941 
	C484.223938,530.754150 479.290222,531.079224 473.990173,531.428345 
	C474.651825,538.512329 477.689545,543.788940 482.848083,547.831116 
	C494.908783,557.281860 514.855774,557.367065 527.053528,548.060730 
	C531.596436,544.594727 534.438354,540.044434 535.051880,534.282959 
	C536.391113,521.704712 529.858337,513.787415 515.859131,511.092224 
	C510.170624,509.997040 504.315674,509.550934 498.769165,507.985168 
	C490.845703,505.748383 489.831116,500.904663 496.173431,494.555511 
M620.765503,537.498596 
	C620.765503,542.754089 620.765503,548.009644 620.765503,553.402832 
	C626.905518,553.402832 632.295471,553.402832 637.620483,553.402832 
	C637.620483,519.064880 637.620483,485.167664 637.620483,451.216553 
	C631.559448,451.216553 625.867798,451.216553 620.762695,451.216553 
	C620.762695,479.891998 620.762695,508.195801 620.765503,537.498596 
z"/>
<path fill="#02C4CD" opacity="1.000000" stroke="none" 
	d="
M173.486374,559.770569 
	C156.499451,546.032898 147.897522,528.247742 147.906891,506.394257 
	C147.911316,496.074982 147.616974,485.712616 148.426376,475.446167 
	C149.831116,457.627960 157.963028,443.230011 171.182877,431.031738 
	C184.406631,418.829834 199.115128,411.029053 217.277679,411.009644 
	C236.362778,410.989227 255.705750,409.518738 274.477661,412.063385 
	C308.612946,416.690582 333.170013,444.027008 335.468750,478.279694 
	C336.408661,492.284790 335.174988,506.537567 333.756470,520.558960 
	C332.973175,528.302002 329.679138,535.760620 323.815704,542.374817 
	C318.170074,537.161865 312.596924,532.429810 307.634918,527.125977 
	C306.479584,525.890930 306.632812,522.359192 307.491058,520.481689 
	C314.704926,504.701385 314.041901,488.230042 309.787140,472.355621 
	C303.669739,449.531830 285.597015,435.489929 262.206482,434.450439 
	C246.445496,433.750061 230.571564,434.219299 214.824081,435.286133 
	C208.835938,435.691833 202.543015,438.364990 197.281982,441.502197 
	C179.640060,452.022247 171.416626,468.218414 171.394348,488.567657 
	C171.384888,497.208282 170.924438,506.058044 172.554718,514.446228 
	C175.733154,530.800110 187.091888,541.194153 201.079315,549.053284 
	C202.366745,549.776672 203.633545,550.536804 204.643799,551.647522 
	C200.299881,556.169922 195.909622,559.838684 189.567780,558.952942 
	C185.183990,558.340698 180.861923,557.286377 175.612625,556.252380 
	C175.324265,556.729553 174.405319,558.250061 173.486374,559.770569 
z"/>
<path fill="#01BFC8" opacity="1.000000" stroke="none" 
	d="
M173.509430,559.759705 
	C174.405319,558.250061 175.324265,556.729553 175.612625,556.252380 
	C180.861923,557.286377 185.183990,558.340698 189.567780,558.952942 
	C195.909622,559.838684 200.299881,556.169922 204.747986,551.986572 
	C206.057098,553.194885 207.742126,554.394226 207.806595,555.675171 
	C208.099106,561.488342 207.934677,567.324585 207.934677,574.455383 
	C215.117203,568.407776 221.745590,562.826782 228.866760,557.282471 
	C229.843613,556.780212 230.327652,556.241272 230.811707,555.702393 
	C230.811707,555.702393 230.865494,555.832275 231.061493,555.753296 
	C231.477631,555.384521 231.697739,555.094666 231.917862,554.804810 
	C231.917862,554.804810 231.910553,554.892517 232.303360,554.907715 
	C236.148727,554.617737 239.598221,554.098755 243.054443,554.049255 
	C251.856934,553.923279 260.664185,554.096558 269.465027,553.921814 
	C270.986755,553.891602 272.486298,552.742676 273.996124,552.110535 
	C274.393463,551.983337 274.790802,551.856201 275.665314,551.917786 
	C276.727722,551.683472 277.312958,551.260498 277.898193,550.837524 
	C277.898193,550.837524 277.934753,550.920715 278.226257,550.884155 
	C278.972839,550.415649 279.427887,549.983704 279.882935,549.551758 
	C280.406860,549.077087 280.930786,548.602356 281.993469,548.059814 
	C282.914948,547.601746 283.297638,547.211548 283.680359,546.821350 
	C283.517029,545.781921 283.353729,544.742432 282.945984,543.192261 
	C282.409363,542.474976 282.117218,542.268433 281.825104,542.061829 
	C281.825104,542.061829 281.944122,542.060364 281.821838,541.872986 
	C281.406219,541.481812 281.112854,541.277954 280.819489,541.074158 
	C280.819489,541.074158 280.908630,541.081360 280.872528,540.782410 
	C280.161224,540.012329 279.486053,539.541199 278.810883,539.070007 
	C275.962677,536.270325 273.114502,533.470642 270.080994,530.060547 
	C269.446564,529.088867 268.997467,528.727722 268.548370,528.366516 
	C268.548370,528.366516 268.650330,528.286377 268.607208,528.062134 
	C268.237183,527.683105 267.910248,527.528320 267.583344,527.373535 
	C267.583344,527.373535 267.538391,527.378113 267.628235,527.022827 
	C265.742462,524.833923 263.766846,523.000366 261.791229,521.166809 
	C261.791229,521.166809 261.916534,521.038330 261.926788,520.719116 
	C262.675201,518.682068 263.310516,516.910278 264.176910,515.259644 
	C265.322662,513.076904 266.649323,510.989166 267.898193,508.860565 
	C267.898193,508.860565 267.958038,508.963196 268.281128,508.954865 
	C271.532196,508.712799 274.460175,508.479065 277.388123,508.245361 
	C277.388123,508.245331 277.522125,508.348694 277.532227,508.759857 
	C278.098328,509.420471 278.654358,509.669922 279.210388,509.919403 
	C279.765594,510.352448 280.320801,510.785492 280.969269,511.834839 
	C283.823120,514.844543 286.583679,517.237915 289.344238,519.631348 
	C289.344238,519.631348 289.294434,519.715454 289.344482,519.954102 
	C289.726227,520.352905 290.057983,520.513062 290.389709,520.673279 
	C290.389709,520.673279 290.284332,520.713501 290.349243,520.944580 
	C290.742310,521.340149 291.070496,521.504639 291.398651,521.669067 
	C291.398651,521.669067 291.289398,521.711548 291.353088,521.939453 
	C291.748260,522.315979 292.079803,522.464600 292.411346,522.613159 
	C292.411346,522.613159 292.226013,522.832031 292.329834,522.993896 
	C292.763000,523.301270 293.092285,523.446655 293.421600,523.592102 
	C293.421600,523.592102 293.183411,523.904846 293.311462,524.022949 
	C293.768677,524.266846 294.097809,524.392761 294.426941,524.518677 
	C294.426941,524.518677 294.532288,524.518188 294.434631,524.914062 
	C295.931793,526.524963 297.526611,527.740112 299.121429,528.955200 
	C301.340820,531.016418 303.560211,533.077637 306.069855,535.689880 
	C306.692596,536.455322 307.025085,536.669739 307.357605,536.884155 
	C307.625519,536.901917 307.837616,537.019958 308.159363,537.699219 
	C308.638397,538.402710 308.952057,538.645325 309.265717,538.887878 
	C309.265717,538.887878 309.146912,538.833740 309.178284,539.136536 
	C309.909790,539.863037 310.609894,540.286804 311.309967,540.710571 
	C311.309967,540.710571 311.217590,540.777100 311.297119,540.994751 
	C311.710388,541.365479 312.044128,541.518555 312.377838,541.671570 
	C312.377838,541.671570 312.267517,541.698242 312.342865,541.932495 
	C312.748749,542.314636 313.079254,542.462524 313.409790,542.610352 
	C313.409790,542.610352 313.466492,542.563293 313.421326,542.732788 
	C313.582855,542.943115 313.789612,542.983948 313.996338,543.024719 
	C314.579803,543.515198 315.163269,544.005676 315.773743,544.856812 
	C315.997589,545.220764 316.194427,545.223999 316.391266,545.227173 
	C316.391266,545.227173 316.544678,545.341675 316.537964,545.756226 
	C317.065796,546.430969 317.600311,546.691101 318.134827,546.951172 
	C318.453796,546.991394 318.707855,547.141418 319.015594,547.949890 
	C319.806732,548.964111 320.479309,549.429871 321.151886,549.895569 
	C321.151886,549.895569 321.065216,549.926270 321.189697,550.125488 
	C321.619354,550.523132 321.924530,550.721497 322.229675,550.919922 
	C323.748840,552.336243 325.267975,553.752563 327.055054,555.705933 
	C327.626831,556.468201 327.930664,556.693420 328.234467,556.918701 
	C328.544098,556.969055 328.781738,557.127441 328.992615,557.967163 
	C328.705566,561.063049 328.373322,563.585571 328.041077,566.108032 
	C327.997498,566.427429 327.846710,566.683777 327.136597,567.089600 
	C326.475616,567.593506 326.266724,567.884888 326.057800,568.176270 
	C326.022583,568.487732 325.877075,568.733948 325.165222,569.110229 
	C324.496674,569.601746 324.284119,569.898071 324.071594,570.194458 
	C324.071594,570.194458 324.060028,570.060669 323.875854,570.194336 
	C323.492035,570.641052 323.292389,570.954163 323.092712,571.267212 
	C323.057831,571.561035 322.917145,571.789856 322.212097,572.140686 
	C321.531036,572.635193 321.308533,572.942566 321.085999,573.249939 
	C318.025848,576.426758 314.965668,579.603577 311.347595,583.066040 
	C310.561707,583.680054 310.333740,584.008545 310.105774,584.336975 
	C310.081482,584.616028 309.951569,584.831299 309.252991,585.167236 
	C308.561737,585.680359 308.333557,586.008972 308.105377,586.337646 
	C308.081390,586.617493 307.951477,586.833679 307.256714,587.152710 
	C306.562500,587.624878 306.327301,587.930542 306.092102,588.236206 
	C306.092072,588.236206 306.128906,588.132629 305.847229,588.142822 
	C305.062897,588.506897 304.560242,588.860901 304.057617,589.214844 
	C303.435577,589.964172 302.813568,590.713501 301.872833,591.886780 
	C301.411804,592.617004 301.269501,592.923340 301.127197,593.229614 
	C301.127197,593.229614 301.099091,593.102478 300.907471,593.209229 
	C300.507111,593.614197 300.298309,593.912415 300.089539,594.210693 
	C300.089539,594.210693 300.101166,594.110229 299.806335,594.141113 
	C299.053619,594.843140 298.595673,595.514160 298.137726,596.185242 
	C298.137726,596.185242 298.102509,596.092468 297.900513,596.201172 
	C297.494202,596.608337 297.289948,596.906860 297.085632,597.205383 
	C297.085632,597.205383 297.072998,597.074585 296.887115,597.192505 
	C296.495483,597.608643 296.289734,597.906799 296.083984,598.204956 
	C296.083954,598.204956 296.065399,598.071045 295.881775,598.193420 
	C295.489105,598.616272 295.280029,598.916748 295.070953,599.217285 
	C294.610107,599.763672 294.149261,600.310059 293.099640,600.997925 
	C292.023956,601.805908 291.536987,602.472595 291.050049,603.139221 
	C290.574554,603.703979 290.099060,604.268799 289.051331,604.971680 
	C288.189117,605.562500 287.899170,606.015198 287.609222,606.467896 
	C287.609222,606.467896 287.556091,606.591003 287.169128,606.535400 
	C286.374939,607.138550 285.967712,607.797302 285.560486,608.455994 
	C285.560486,608.455994 285.480042,608.480103 285.154724,608.467651 
	C284.662933,608.774170 284.496460,609.093140 284.329987,609.412048 
	C284.329987,609.412048 284.242401,609.343750 284.013031,609.358093 
	C283.547699,609.646484 283.311737,609.920471 283.075775,610.194458 
	C283.075775,610.194458 283.085114,610.104126 282.696838,610.080688 
	C281.159149,610.071411 280.009735,610.085510 278.860321,610.099609 
	C278.860321,610.099609 278.940033,610.066040 278.789001,609.827759 
	C278.339020,609.280396 278.040100,608.971375 277.741150,608.662354 
	C275.909637,607.307495 274.078156,605.952576 272.241364,604.179565 
	C272.009949,603.684387 271.783783,603.607178 271.557617,603.530029 
	C271.557617,603.530029 271.490631,603.435486 271.632355,602.999268 
	C271.477814,599.659424 271.181549,596.755737 270.885284,593.852112 
	C270.885284,593.852112 270.918549,593.932617 271.122742,593.802673 
	C271.520233,593.356445 271.713531,593.040161 271.906860,592.723816 
	C274.369598,590.232117 276.832336,587.740417 279.902832,585.069397 
	C280.807220,584.436340 281.103851,583.982544 281.400482,583.528809 
	C281.400482,583.528809 281.464996,583.448853 281.784302,583.474487 
	C282.189972,583.185608 282.276306,582.871155 282.362671,582.556702 
	C282.362671,582.556702 282.444092,582.454712 282.785950,582.478760 
	C283.239166,582.185242 283.350525,581.867676 283.461884,581.550171 
	C283.461884,581.550171 283.520111,581.550354 283.813934,581.540649 
	C284.197662,581.211060 284.287598,580.891174 284.377502,580.571228 
	C284.377502,580.571228 284.670532,580.515564 284.996307,580.502380 
	C285.510406,580.113220 285.698700,579.737244 285.886993,579.361267 
	C285.857117,579.066528 285.907349,578.786133 285.711792,578.013306 
	C270.756165,577.348206 256.126434,577.168152 241.496201,577.107910 
	C240.883362,577.105408 240.265930,578.219482 239.650635,578.813354 
	C239.650650,578.813354 239.262039,578.925293 238.886871,578.608398 
	C238.009628,578.520081 237.507538,578.748657 237.005432,578.977295 
	C227.310318,587.144653 217.734299,595.459290 207.878433,603.427795 
	C201.249771,608.787170 197.187592,608.510620 190.942337,602.611084 
	C190.425018,601.673706 190.126450,601.356262 189.827866,601.038818 
	C189.827866,601.038818 189.925171,601.065796 189.897995,600.789368 
	C189.496521,600.036804 189.122223,599.560669 188.747925,599.084534 
	C188.747940,599.084534 188.855209,599.074341 188.894745,598.673706 
	C188.333160,595.517334 187.732025,592.761536 187.130905,590.005737 
	C187.092606,589.557556 187.054306,589.109436 187.444153,588.199402 
	C188.104263,581.815979 188.360535,575.894958 188.496628,569.971191 
	C188.503464,569.673645 187.469971,569.352295 186.920868,569.042053 
	C186.920853,569.042053 186.988297,569.022583 186.860718,568.839294 
	C186.479904,568.439514 186.226685,568.222961 185.973450,568.006470 
	C185.671356,568.001160 185.396790,567.911560 184.881287,567.260925 
	C184.016373,566.567749 183.419907,566.351257 182.823456,566.134766 
	C182.823456,566.134766 182.913727,566.108459 182.785797,565.911194 
	C182.321243,565.597107 181.984619,565.480347 181.648010,565.363525 
	C181.648010,565.363525 181.748520,565.392822 181.642395,565.103882 
	C180.956497,564.600281 180.376724,564.385681 179.796967,564.171082 
	C179.796967,564.171082 179.892166,564.137390 179.772064,563.935669 
	C179.314590,563.606873 178.977219,563.479797 178.639832,563.352722 
	C178.639832,563.352722 178.756821,563.319946 178.638107,563.050781 
	C177.910248,562.558655 177.301086,562.335754 176.691925,562.112854 
	C176.459503,562.126160 176.250687,562.062256 175.882446,561.475403 
	C175.382629,560.764099 175.065826,560.498535 174.749039,560.232971 
	C174.749039,560.232971 174.671417,560.511414 174.585266,560.218872 
	C174.193283,559.871216 173.887451,559.816101 173.581635,559.760986 
	C173.581635,559.760986 173.532486,559.748840 173.509430,559.759705 
z"/>
<path fill="#F7F7F5" opacity="1.000000" stroke="none" 
	d="
M458.098419,520.894226 
	C462.167725,531.729736 466.119232,542.190857 470.151215,552.865051 
	C464.155182,553.418701 458.507721,554.077026 452.843201,554.298035 
	C452.096283,554.327148 451.016205,552.220093 450.509674,550.936890 
	C447.794830,544.059448 445.212769,537.129517 442.542816,530.107178 
	C428.884247,530.107178 415.262024,530.107178 401.489594,530.107178 
	C399.237823,536.157715 396.675537,542.055420 394.878296,548.177795 
	C393.386444,553.259644 390.126831,554.597412 385.456726,554.471069 
	C381.815216,554.372559 378.168915,554.451355 373.504059,554.451355 
	C374.703033,550.926697 375.660004,547.878174 376.770111,544.886475 
	C387.666290,515.522034 398.639557,486.186035 409.423431,456.780518 
	C410.513489,453.808228 411.803192,452.602661 415.031647,452.751801 
	C420.827728,453.019501 426.645050,452.827362 432.602814,452.827362 
	C441.102997,475.500671 449.541809,498.010254 458.098419,520.894226 
M436.466614,512.999756 
	C431.693909,499.865509 426.921173,486.731262 421.886353,472.875671 
	C416.607910,487.673859 411.700134,501.432831 406.662445,515.556152 
	C415.483368,515.556152 423.755127,515.555664 432.026886,515.557129 
	C432.692871,515.557190 433.454895,515.781982 434.003998,515.532288 
	C435.015228,515.072388 435.901367,514.337402 436.466614,512.999756 
z"/>
<path fill="#F7F7F5" opacity="1.000000" stroke="none" 
	d="
M815.673218,573.009644 
	C815.675110,542.225525 815.675110,511.945343 815.675110,481.333008 
	C821.233276,481.333008 826.931702,481.333008 833.015808,481.333008 
	C832.769043,483.874542 832.547791,486.153198 832.266907,489.045776 
	C838.118042,482.389282 844.929260,478.783875 853.553711,478.702087 
	C862.093811,478.621155 869.540833,481.257996 875.941956,486.754761 
	C884.071777,493.736084 887.791321,502.988464 888.489014,513.417786 
	C889.269775,525.087769 886.478882,535.731873 878.360229,544.643555 
	C868.546875,555.415588 846.447510,561.336426 832.481323,544.856079 
	C832.481323,556.993652 832.481323,569.192261 832.481323,581.705078 
	C826.872498,581.705078 821.320251,581.705078 815.671326,581.705078 
	C815.671326,579.021790 815.671326,576.267639 815.673218,573.009644 
M832.096985,513.005127 
	C832.053772,514.836060 831.899719,516.672302 831.986328,518.497070 
	C832.395813,527.123169 838.061218,535.454590 845.340332,537.898621 
	C852.973083,540.461426 859.864807,538.932007 865.395264,533.083496 
	C873.557373,524.452087 873.500977,507.375916 864.189697,499.344666 
	C861.706665,497.202972 858.221313,495.595215 854.981567,495.072296 
	C843.513794,493.221344 835.899292,499.180328 832.096985,513.005127 
z"/>
<path fill="#F7F7F5" opacity="1.000000" stroke="none" 
	d="
M606.253296,486.166443 
	C597.727844,495.334991 589.458496,504.243469 580.906555,513.456482 
	C591.683899,526.456726 602.432068,539.421753 614.256165,553.684631 
	C606.367493,553.684631 599.656860,554.042969 593.028687,553.461426 
	C591.094238,553.291809 589.170654,550.630554 587.626465,548.789062 
	C580.790222,540.636536 574.104187,532.358215 567.336731,524.147705 
	C566.221375,522.794617 564.970947,521.552856 563.016541,519.425354 
	C563.016541,531.214600 563.016541,541.930969 563.016541,553.100647 
	C557.277954,553.100647 552.044189,553.100647 546.341675,553.100647 
	C546.341675,519.382507 546.341675,485.381897 546.341675,451.122192 
	C551.986877,451.122192 557.404724,451.122192 563.115173,451.122192 
	C563.115173,470.309448 563.115173,489.480225 563.115173,510.001160 
	C567.149109,505.243378 570.268127,501.271057 573.698425,497.588837 
	C578.641907,492.282288 583.764099,487.138000 588.941650,482.058685 
	C589.628113,481.385254 591.085327,481.297546 592.190002,481.283691 
	C597.984436,481.211182 603.780273,481.249786 610.577515,481.249786 
	C608.949951,483.112885 607.729736,484.509613 606.253296,486.166443 
z"/>
<path fill="#F7F7F5" opacity="1.000000" stroke="none" 
	d="
M739.764343,491.829987 
	C758.516357,470.288177 790.826843,477.223511 801.231079,498.335205 
	C808.144958,512.364685 807.883057,526.357666 798.881531,539.238708 
	C790.527588,551.193237 778.254150,556.507935 763.859802,554.580872 
	C748.288940,552.496277 737.371948,543.755066 732.818359,528.308594 
	C728.956238,515.207581 731.257751,503.050232 739.764343,491.829987 
M748.754333,515.626587 
	C748.824097,517.451721 748.774780,519.290466 748.982361,521.099792 
	C750.749634,536.502258 767.892639,544.291260 780.135986,535.115173 
	C786.620117,530.255493 788.601501,523.228516 788.214355,515.402832 
	C787.623901,503.469116 779.293030,494.484131 768.713989,494.332550 
	C757.934692,494.178040 749.805359,502.504242 748.754333,515.626587 
z"/>
<path fill="#F7F7F5" opacity="1.000000" stroke="none" 
	d="
M703.066284,550.202393 
	C682.069580,560.175537 660.117676,553.304688 650.794922,532.973938 
	C644.385498,518.996216 646.024658,504.768005 655.658630,492.453308 
	C664.891602,480.651184 677.816223,476.634766 692.132507,479.463104 
	C707.357544,482.471008 717.290344,492.171906 720.938232,507.453827 
	C725.219482,525.388855 718.694031,540.785889 703.066284,550.202393 
M701.018005,530.325134 
	C702.275269,527.165955 704.151489,524.105713 704.675415,520.829163 
	C706.343689,510.397369 700.948547,497.425201 689.081787,494.968842 
	C679.779663,493.043335 671.007629,497.567108 667.035156,506.265228 
	C662.629822,515.911194 665.135986,528.785095 672.538574,534.535461 
	C681.607483,541.580261 690.621643,540.453674 701.018005,530.325134 
z"/>
<path fill="#F7F7F5" opacity="1.000000" stroke="none" 
	d="
M495.850098,494.762878 
	C489.831116,500.904663 490.845703,505.748383 498.769165,507.985168 
	C504.315674,509.550934 510.170624,509.997040 515.859131,511.092224 
	C529.858337,513.787415 536.391113,521.704712 535.051880,534.282959 
	C534.438354,540.044434 531.596436,544.594727 527.053528,548.060730 
	C514.855774,557.367065 494.908783,557.281860 482.848083,547.831116 
	C477.689545,543.788940 474.651825,538.512329 473.990173,531.428345 
	C479.290222,531.079224 484.223938,530.754150 489.191406,530.426941 
	C494.296783,540.094299 502.915588,543.756958 512.094177,539.815369 
	C515.765442,538.238831 519.525208,536.233826 519.035156,531.213562 
	C518.573975,526.488770 514.600769,525.056396 511.014465,524.222961 
	C505.709656,522.990234 500.133362,522.959717 494.789551,521.852905 
	C486.628601,520.162659 479.350525,516.946838 476.397125,508.123383 
	C473.602997,499.775787 476.346832,490.993988 483.637207,484.940002 
	C495.721771,474.904968 518.963318,476.636688 528.956299,488.683319 
	C531.638916,491.917297 533.070923,496.188629 535.354431,500.508575 
	C530.912781,501.103577 527.964722,501.720062 524.996582,501.840027 
	C521.279541,501.990234 518.083801,501.833893 515.746887,497.492676 
	C512.507507,491.474976 504.087494,490.663574 495.850098,494.762878 
z"/>
<path fill="#F7F7F5" opacity="1.000000" stroke="none" 
	d="
M620.764099,536.999146 
	C620.762695,508.195801 620.762695,479.891998 620.762695,451.216553 
	C625.867798,451.216553 631.559448,451.216553 637.620483,451.216553 
	C637.620483,485.167664 637.620483,519.064880 637.620483,553.402832 
	C632.295471,553.402832 626.905518,553.402832 620.765503,553.402832 
	C620.765503,548.009644 620.765503,542.754089 620.764099,536.999146 
z"/>
<path fill="#02C4CD" opacity="1.000000" stroke="none" 
	d="
M273.528015,552.088013 
	C272.486298,552.742676 270.986755,553.891602 269.465027,553.921814 
	C260.664185,554.096558 251.856934,553.923279 243.054443,554.049255 
	C239.598221,554.098755 236.148727,554.617737 232.261719,554.893433 
	C233.183029,554.179138 234.538803,553.494385 236.445740,552.853027 
	C237.281662,552.891113 237.553070,552.828186 237.811127,552.707703 
	C247.072922,552.505432 256.334534,552.294373 265.596619,552.106750 
	C268.083618,552.056335 270.572113,552.077393 273.528015,552.088013 
z"/>
<path fill="#02C4CD" opacity="1.000000" stroke="none" 
	d="
M240.069000,578.821411 
	C240.265930,578.219482 240.883362,577.105408 241.496201,577.107910 
	C256.126434,577.168152 270.756165,577.348206 285.683289,577.799377 
	C273.429688,578.111511 260.878540,578.093750 248.328064,578.180420 
	C245.713120,578.198425 243.100861,578.602966 240.069000,578.821411 
z"/>
<path fill="#02C4CD" opacity="1.000000" stroke="none" 
	d="
M186.931778,569.507446 
	C187.469971,569.352295 188.503464,569.673645 188.496628,569.971191 
	C188.360535,575.894958 188.104263,581.815979 187.501556,587.865723 
	C187.068115,581.986877 187.005402,575.979797 186.931778,569.507446 
z"/>
<path fill="#02C4CD" opacity="1.000000" stroke="none" 
	d="
M267.592529,509.002747 
	C266.649323,510.989166 265.322662,513.076904 264.176910,515.259644 
	C263.310516,516.910278 262.675201,518.682068 261.882812,520.797363 
	C258.973114,518.821167 259.503265,516.455872 261.894257,514.153137 
	C263.660950,512.451721 265.487183,510.812073 267.592529,509.002747 
z"/>
<path fill="#02C4CD" opacity="1.000000" stroke="none" 
	d="
M289.181854,519.346802 
	C286.583679,517.237915 283.823120,514.844543 281.087708,512.075256 
	C283.748383,514.153625 286.383942,516.607971 289.181854,519.346802 
z"/>
<path fill="#02C4CD" opacity="1.000000" stroke="none" 
	d="
M277.199097,508.011475 
	C274.460175,508.479065 271.532196,508.712799 268.232147,508.921265 
	C270.580841,505.830017 273.434814,503.853424 277.199097,508.011475 
z"/>
<path fill="#02C4CD" opacity="1.000000" stroke="none" 
	d="
M261.930664,521.466980 
	C263.766846,523.000366 265.742462,524.833923 267.606445,527.028687 
	C265.686584,525.515625 263.878357,523.641357 261.930664,521.466980 
z"/>
<path fill="#02C4CD" opacity="1.000000" stroke="none" 
	d="
M187.078125,590.417786 
	C187.732025,592.761536 188.333160,595.517334 188.887589,598.727173 
	C188.235687,596.397400 187.630508,593.613586 187.078125,590.417786 
z"/>
<path fill="#02C4CD" opacity="1.000000" stroke="none" 
	d="
M270.572235,594.065918 
	C271.181549,596.755737 271.477814,599.659424 271.638794,602.941650 
	C268.738800,600.630188 267.339508,597.752197 270.572235,594.065918 
z"/>
<path fill="#02C4CD" opacity="1.000000" stroke="none" 
	d="
M328.341187,565.918152 
	C328.373322,563.585571 328.705566,561.063049 329.052307,558.178589 
	C332.286804,560.634644 331.309296,563.226929 328.341187,565.918152 
z"/>
<path fill="#02C4CD" opacity="1.000000" stroke="none" 
	d="
M298.965790,528.669800 
	C297.526611,527.740112 295.931793,526.524963 294.477936,524.943970 
	C296.015991,525.846863 297.413086,527.115662 298.965790,528.669800 
z"/>
<path fill="#02C4CD" opacity="1.000000" stroke="none" 
	d="
M279.009888,610.350220 
	C280.009735,610.085510 281.159149,610.071411 282.739685,610.095703 
	C281.833649,610.289734 280.496552,610.445251 279.009888,610.350220 
z"/>
<path fill="#02C4CD" opacity="1.000000" stroke="none" 
	d="
M311.176636,540.448242 
	C310.609894,540.286804 309.909790,539.863037 309.217773,539.084534 
	C309.831665,539.215149 310.437469,539.700562 311.176636,540.448242 
z"/>
<path fill="#02C4CD" opacity="1.000000" stroke="none" 
	d="
M277.614929,550.875122 
	C277.312958,551.260498 276.727722,551.683472 275.971161,551.851318 
	C276.310455,551.368286 276.821075,551.140503 277.614929,550.875122 
z"/>
<path fill="#02C4CD" opacity="1.000000" stroke="none" 
	d="
M278.950745,539.335205 
	C279.486053,539.541199 280.161224,540.012329 280.859558,540.825195 
	C280.285309,540.644775 279.687958,540.122559 278.950745,539.335205 
z"/>
<path fill="#02C4CD" opacity="1.000000" stroke="none" 
	d="
M230.544373,555.799744 
	C230.327652,556.241272 229.843613,556.780212 229.178864,557.157715 
	C229.424469,556.629944 229.850754,556.263550 230.544373,555.799744 
z"/>
<path fill="#02C4CD" opacity="1.000000" stroke="none" 
	d="
M321.011719,549.630798 
	C320.479309,549.429871 319.806732,548.964111 319.099609,548.160156 
	C319.667206,548.336609 320.269379,548.851318 321.011719,549.630798 
z"/>
<path fill="#02C4CD" opacity="1.000000" stroke="none" 
	d="
M283.423096,546.888794 
	C283.297638,547.211548 282.914948,547.601746 282.251892,547.991089 
	C282.369629,547.645630 282.767731,547.300964 283.423096,546.888794 
z"/>
<path fill="#02C4CD" opacity="1.000000" stroke="none" 
	d="
M298.403015,596.054321 
	C298.595673,595.514160 299.053619,594.843140 299.853943,594.158264 
	C299.687042,594.737488 299.177673,595.330444 298.403015,596.054321 
z"/>
<path fill="#02C4CD" opacity="1.000000" stroke="none" 
	d="
M291.323059,603.005981 
	C291.536987,602.472595 292.023956,601.805908 292.849487,601.103577 
	C292.657379,601.669495 292.126740,602.271057 291.323059,603.005981 
z"/>
<path fill="#02C4CD" opacity="1.000000" stroke="none" 
	d="
M285.793793,608.329590 
	C285.967712,607.797302 286.374939,607.138550 287.113007,606.572144 
	C286.971588,607.177307 286.499329,607.690247 285.793793,608.329590 
z"/>
<path fill="#02C4CD" opacity="1.000000" stroke="none" 
	d="
M188.800690,599.389038 
	C189.122223,599.560669 189.496521,600.036804 189.877426,600.835449 
	C189.540512,600.669861 189.196976,600.181763 188.800690,599.389038 
z"/>
<path fill="#02C4CD" opacity="1.000000" stroke="none" 
	d="
M304.382690,589.199524 
	C304.560242,588.860901 305.062897,588.506897 305.893127,588.172974 
	C305.716400,588.523438 305.212067,588.853821 304.382690,589.199524 
z"/>
<path fill="#02C4CD" opacity="1.000000" stroke="none" 
	d="
M281.165649,583.652893 
	C281.103851,583.982544 280.807220,584.436340 280.198181,584.924805 
	C280.234161,584.565308 280.582489,584.171143 281.165649,583.652893 
z"/>
<path fill="#02C4CD" opacity="1.000000" stroke="none" 
	d="
M237.278442,579.002380 
	C237.507538,578.748657 238.009628,578.520081 238.764816,578.447144 
	C238.529099,578.744385 238.040268,578.885925 237.278442,579.002380 
z"/>
<path fill="#02C4CD" opacity="1.000000" stroke="none" 
	d="
M287.842926,606.345215 
	C287.899170,606.015198 288.189117,605.562500 288.789673,605.073059 
	C288.759094,605.431702 288.417847,605.827087 287.842926,606.345215 
z"/>
<path fill="#02C4CD" opacity="1.000000" stroke="none" 
	d="
M183.009842,566.383667 
	C183.419907,566.351257 184.016373,566.567749 184.752487,567.083618 
	C184.326843,567.132935 183.761536,566.882812 183.009842,566.383667 
z"/>
<path fill="#02C4CD" opacity="1.000000" stroke="none" 
	d="
M179.956055,564.417847 
	C180.376724,564.385681 180.956497,564.600281 181.604858,565.140381 
	C181.154037,565.198730 180.634598,564.931641 179.956055,564.417847 
z"/>
<path fill="#02C4CD" opacity="1.000000" stroke="none" 
	d="
M176.869629,562.370117 
	C177.301086,562.335754 177.910248,562.558655 178.623138,563.109619 
	C178.167038,563.167542 177.607178,562.897461 176.869629,562.370117 
z"/>
<path fill="#02C4CD" opacity="1.000000" stroke="none" 
	d="
M279.068420,509.674622 
	C278.654358,509.669922 278.098328,509.420471 277.538513,508.844269 
	C277.998657,508.821625 278.462585,509.125732 279.068420,509.674622 
z"/>
<path fill="#02C4CD" opacity="1.000000" stroke="none" 
	d="
M268.655029,528.633057 
	C268.997467,528.727722 269.446564,529.088867 269.932678,529.764893 
	C269.567047,529.686340 269.164337,529.292969 268.655029,528.633057 
z"/>
<path fill="#02C4CD" opacity="1.000000" stroke="none" 
	d="
M317.997437,546.714478 
	C317.600311,546.691101 317.065796,546.430969 316.539612,545.851929 
	C316.985291,545.847961 317.422668,546.162842 317.997437,546.714478 
z"/>
<path fill="#02C4CD" opacity="1.000000" stroke="none" 
	d="
M279.602966,549.684570 
	C279.427887,549.983704 278.972839,550.415649 278.182281,550.872742 
	C278.338837,550.537720 278.830902,550.177551 279.602966,549.684570 
z"/>
<path fill="#02C4CD" opacity="1.000000" stroke="none" 
	d="
M308.365540,586.189758 
	C308.333557,586.008972 308.561737,585.680359 309.067505,585.224731 
	C309.105286,585.412415 308.865479,585.727112 308.365540,586.189758 
z"/>
<path fill="#02C4CD" opacity="1.000000" stroke="none" 
	d="
M309.158417,538.607300 
	C308.952057,538.645325 308.638397,538.402710 308.221954,537.875488 
	C308.429810,537.836121 308.740479,538.081421 309.158417,538.607300 
z"/>
<path fill="#02C4CD" opacity="1.000000" stroke="none" 
	d="
M306.365570,588.130127 
	C306.327301,587.930542 306.562500,587.624878 307.071411,587.212769 
	C307.109741,587.412231 306.874390,587.718201 306.365570,588.130127 
z"/>
<path fill="#02C4CD" opacity="1.000000" stroke="none" 
	d="
M307.205933,536.629883 
	C307.025085,536.669739 306.692596,536.455322 306.227173,535.970215 
	C306.414276,535.924805 306.734283,536.150208 307.205933,536.629883 
z"/>
<path fill="#02C4CD" opacity="1.000000" stroke="none" 
	d="
M291.291443,521.424194 
	C291.070496,521.504639 290.742310,521.340149 290.360748,520.889404 
	C290.599609,520.795166 290.891907,520.987244 291.291443,521.424194 
z"/>
<path fill="#02C4CD" opacity="1.000000" stroke="none" 
	d="
M301.388763,593.115356 
	C301.269501,592.923340 301.411804,592.617004 301.760162,592.158813 
	C301.860931,592.338318 301.755615,592.669739 301.388763,593.115356 
z"/>
<path fill="#02C4CD" opacity="1.000000" stroke="none" 
	d="
M271.653870,592.854736 
	C271.713531,593.040161 271.520233,593.356445 271.080139,593.811523 
	C271.022491,593.628784 271.211670,593.307190 271.653870,592.854736 
z"/>
<path fill="#02C4CD" opacity="1.000000" stroke="none" 
	d="
M300.350220,594.107971 
	C300.298309,593.912415 300.507111,593.614197 300.972534,593.206177 
	C301.023102,593.399414 300.817017,593.702332 300.350220,594.107971 
z"/>
<path fill="#02C4CD" opacity="1.000000" stroke="none" 
	d="
M290.275757,520.427002 
	C290.057983,520.513062 289.726227,520.352905 289.320068,519.911743 
	C289.551056,519.814087 289.856415,519.997437 290.275757,520.427002 
z"/>
<path fill="#02C4CD" opacity="1.000000" stroke="none" 
	d="
M313.914246,542.879944 
	C313.789612,542.983948 313.582855,542.943115 313.457428,542.740173 
	C313.538727,542.578064 313.832184,542.735168 313.914246,542.879944 
z"/>
<path fill="#02C4CD" opacity="1.000000" stroke="none" 
	d="
M297.342072,597.098022 
	C297.289948,596.906860 297.494202,596.608337 297.949585,596.193848 
	C297.999939,596.382202 297.799194,596.686401 297.342072,597.098022 
z"/>
<path fill="#02C4CD" opacity="1.000000" stroke="none" 
	d="
M296.341125,598.097290 
	C296.289734,597.906799 296.495483,597.608643 296.952789,597.194458 
	C297.002319,597.382141 296.800293,597.685852 296.341125,598.097290 
z"/>
<path fill="#02C4CD" opacity="1.000000" stroke="none" 
	d="
M295.326172,599.099182 
	C295.280029,598.916748 295.489105,598.616272 295.949371,598.191650 
	C295.994202,598.372009 295.787811,598.676575 295.326172,599.099182 
z"/>
<path fill="#02C4CD" opacity="1.000000" stroke="none" 
	d="
M313.300354,542.373413 
	C313.079254,542.462524 312.748749,542.314636 312.367737,541.881470 
	C312.608521,541.776306 312.899719,541.956421 313.300354,542.373413 
z"/>
<path fill="#02C4CD" opacity="1.000000" stroke="none" 
	d="
M189.913574,601.362671 
	C190.126450,601.356262 190.425018,601.673706 190.820557,602.310791 
	C190.611435,602.315857 190.305359,602.001160 189.913574,601.362671 
z"/>
<path fill="#02C4CD" opacity="1.000000" stroke="none" 
	d="
M281.943970,542.307373 
	C282.117218,542.268433 282.409363,542.474976 282.825684,542.922607 
	C282.654175,542.960144 282.358521,542.756531 281.943970,542.307373 
z"/>
<path fill="#02C4CD" opacity="1.000000" stroke="none" 
	d="
M271.632050,603.677673 
	C271.783783,603.607178 272.009949,603.684387 272.110657,603.882446 
	C271.985260,604.003357 271.706482,603.825378 271.632050,603.677673 
z"/>
<path fill="#02C4CD" opacity="1.000000" stroke="none" 
	d="
M312.257996,541.426697 
	C312.044128,541.518555 311.710388,541.365479 311.284332,540.939331 
	C311.507385,540.838074 311.822784,541.009949 312.257996,541.426697 
z"/>
<path fill="#02C4CD" opacity="1.000000" stroke="none" 
	d="
M280.929565,541.325195 
	C281.112854,541.277954 281.406219,541.481812 281.816162,541.932251 
	C281.635071,541.977966 281.337372,541.777100 280.929565,541.325195 
z"/>
<path fill="#02C4CD" opacity="1.000000" stroke="none" 
	d="
M284.571350,609.326538 
	C284.496460,609.093140 284.662933,608.774170 285.116119,608.451111 
	C285.206146,608.711670 285.009430,608.976379 284.571350,609.326538 
z"/>
<path fill="#02C4CD" opacity="1.000000" stroke="none" 
	d="
M277.768219,609.022339 
	C278.040100,608.971375 278.339020,609.280396 278.799316,609.869751 
	C278.572235,609.894104 278.183746,609.638184 277.768219,609.022339 
z"/>
<path fill="#02C4CD" opacity="1.000000" stroke="none" 
	d="
M283.347443,610.133667 
	C283.311737,609.920471 283.547699,609.646484 284.060944,609.329956 
	C284.098541,609.549377 283.858826,609.811157 283.347443,610.133667 
z"/>
<path fill="#02C4CD" opacity="1.000000" stroke="none" 
	d="
M231.654327,554.897461 
	C231.697739,555.094666 231.477631,555.384521 230.992249,555.765137 
	C230.948242,555.567383 231.169525,555.278809 231.654327,554.897461 
z"/>
<path fill="#02C4CD" opacity="1.000000" stroke="none" 
	d="
M294.316833,524.299194 
	C294.097809,524.392761 293.768677,524.266846 293.412537,523.854370 
	C293.722595,523.636841 293.996307,523.807495 294.316833,524.299194 
z"/>
<path fill="#02C4CD" opacity="1.000000" stroke="none" 
	d="
M328.110291,556.660767 
	C327.930664,556.693420 327.626831,556.468201 327.205414,555.979736 
	C327.387268,555.945251 327.686707,556.174011 328.110291,556.660767 
z"/>
<path fill="#02C4CD" opacity="1.000000" stroke="none" 
	d="
M267.686432,527.610413 
	C267.910248,527.528320 268.237183,527.683105 268.595703,528.125977 
	C268.348053,528.225098 268.068787,528.036194 267.686432,527.610413 
z"/>
<path fill="#02C4CD" opacity="1.000000" stroke="none" 
	d="
M173.674744,559.920654 
	C173.887451,559.816101 174.193283,559.871216 174.442093,560.199097 
	C174.136902,560.408203 173.931168,560.277710 173.674744,559.920654 
z"/>
<path fill="#02C4CD" opacity="1.000000" stroke="none" 
	d="
M174.781372,560.561890 
	C175.065826,560.498535 175.382629,560.764099 175.791626,561.335815 
	C175.527130,561.391541 175.170425,561.141174 174.781372,560.561890 
z"/>
<path fill="#01BFC8" opacity="1.000000" stroke="none" 
	d="
M237.600357,552.654419 
	C237.553070,552.828186 237.281662,552.891113 236.783691,552.885376 
	C236.811539,552.687195 237.084579,552.596130 237.600357,552.654419 
z"/>
<path fill="#02C4CD" opacity="1.000000" stroke="none" 
	d="
M178.771790,563.589966 
	C178.977219,563.479797 179.314590,563.606873 179.775467,563.986084 
	C179.567230,564.101135 179.235489,563.964111 178.771790,563.589966 
z"/>
<path fill="#02C4CD" opacity="1.000000" stroke="none" 
	d="
M322.099121,550.674561 
	C321.924530,550.721497 321.619354,550.523132 321.181702,550.080200 
	C321.355682,550.033569 321.662140,550.231384 322.099121,550.674561 
z"/>
<path fill="#02C4CD" opacity="1.000000" stroke="none" 
	d="
M181.782715,565.596680 
	C181.984619,565.480347 182.321243,565.597107 182.788116,565.958130 
	C182.584732,566.078247 182.251083,565.954041 181.782715,565.596680 
z"/>
<path fill="#02C4CD" opacity="1.000000" stroke="none" 
	d="
M326.297974,568.047729 
	C326.266724,567.884888 326.475616,567.593506 326.925354,567.175171 
	C326.956848,567.338562 326.747467,567.628845 326.297974,568.047729 
z"/>
<path fill="#02C4CD" opacity="1.000000" stroke="none" 
	d="
M186.118149,568.208862 
	C186.226685,568.222961 186.479904,568.439514 186.859711,568.874390 
	C186.709137,568.903870 186.467987,568.676697 186.118149,568.208862 
z"/>
<path fill="#02C4CD" opacity="1.000000" stroke="none" 
	d="
M316.329651,545.131958 
	C316.194427,545.223999 315.997589,545.220764 315.923523,545.103577 
	C316.046265,544.989624 316.268066,545.036743 316.329651,545.131958 
z"/>
<path fill="#02C4CD" opacity="1.000000" stroke="none" 
	d="
M324.325531,570.080627 
	C324.284119,569.898071 324.496674,569.601746 324.958832,569.185913 
	C324.998810,569.366638 324.789124,569.666687 324.325531,570.080627 
z"/>
<path fill="#02C4CD" opacity="1.000000" stroke="none" 
	d="
M323.341187,571.132080 
	C323.292389,570.954163 323.492035,570.641052 323.942993,570.195251 
	C323.992737,570.373962 323.791168,570.685486 323.341187,571.132080 
z"/>
<path fill="#02C4CD" opacity="1.000000" stroke="none" 
	d="
M321.341248,573.120422 
	C321.308533,572.942566 321.531036,572.635193 322.016418,572.207336 
	C322.051666,572.388184 321.824036,572.689575 321.341248,573.120422 
z"/>
<path fill="#02C4CD" opacity="1.000000" stroke="none" 
	d="
M293.314270,523.359924 
	C293.092285,523.446655 292.763000,523.301270 292.398621,522.868103 
	C292.644714,522.762817 292.925842,522.945251 293.314270,523.359924 
z"/>
<path fill="#02C4CD" opacity="1.000000" stroke="none" 
	d="
M292.299866,522.375977 
	C292.079803,522.464600 291.748260,522.315979 291.363770,521.881836 
	C291.603333,521.777161 291.895844,521.958008 292.299866,522.375977 
z"/>
<path fill="#02C4CD" opacity="1.000000" stroke="none" 
	d="
M285.593201,579.520996 
	C285.698700,579.737244 285.510406,580.113220 285.043243,580.643921 
	C284.942719,580.426025 285.121063,580.053406 285.593201,579.520996 
z"/>
<path fill="#02C4CD" opacity="1.000000" stroke="none" 
	d="
M284.186584,580.673340 
	C284.287598,580.891174 284.197662,581.211060 283.825531,581.513916 
	C283.604248,581.200073 283.755005,580.959595 284.186584,580.673340 
z"/>
<path fill="#02C4CD" opacity="1.000000" stroke="none" 
	d="
M283.264008,581.640259 
	C283.350525,581.867676 283.239166,582.185242 282.848572,582.460449 
	C282.640472,582.120728 282.806091,581.891418 283.264008,581.640259 
z"/>
<path fill="#02C4CD" opacity="1.000000" stroke="none" 
	d="
M282.181732,582.648071 
	C282.276306,582.871155 282.189972,583.185608 281.827271,583.446289 
	C281.616150,583.116455 281.766083,582.898804 282.181732,582.648071 
z"/>
<path fill="#02C4CD" opacity="1.000000" stroke="none" 
	d="
M310.366852,584.190552 
	C310.333740,584.008545 310.561707,583.680054 311.067230,583.225098 
	C311.105835,583.413757 310.866882,583.728943 310.366852,584.190552 
z"/>
<path fill="#141922" opacity="1.000000" stroke="none" 
	d="
M436.653107,513.358398 
	C435.901367,514.337402 435.015228,515.072388 434.003998,515.532288 
	C433.454895,515.781982 432.692871,515.557190 432.026886,515.557129 
	C423.755127,515.555664 415.483368,515.556152 406.662445,515.556152 
	C411.700134,501.432831 416.607910,487.673859 421.886353,472.875671 
	C426.921173,486.731262 431.693909,499.865509 436.653107,513.358398 
z"/>
<path fill="#141922" opacity="1.000000" stroke="none" 
	d="
M832.178589,512.582275 
	C835.899292,499.180328 843.513794,493.221344 854.981567,495.072296 
	C858.221313,495.595215 861.706665,497.202972 864.189697,499.344666 
	C873.500977,507.375916 873.557373,524.452087 865.395264,533.083496 
	C859.864807,538.932007 852.973083,540.461426 845.340332,537.898621 
	C838.061218,535.454590 832.395813,527.123169 831.986328,518.497070 
	C831.899719,516.672302 832.053772,514.836060 832.178589,512.582275 
z"/>
<path fill="#141922" opacity="1.000000" stroke="none" 
	d="
M748.783752,515.170898 
	C749.805359,502.504242 757.934692,494.178040 768.713989,494.332550 
	C779.293030,494.484131 787.623901,503.469116 788.214355,515.402832 
	C788.601501,523.228516 786.620117,530.255493 780.135986,535.115173 
	C767.892639,544.291260 750.749634,536.502258 748.982361,521.099792 
	C748.774780,519.290466 748.824097,517.451721 748.783752,515.170898 
z"/>
<path fill="#141922" opacity="1.000000" stroke="none" 
	d="
M700.868530,530.669373 
	C690.621643,540.453674 681.607483,541.580261 672.538574,534.535461 
	C665.135986,528.785095 662.629822,515.911194 667.035156,506.265228 
	C671.007629,497.567108 679.779663,493.043335 689.081787,494.968842 
	C700.948547,497.425201 706.343689,510.397369 704.675415,520.829163 
	C704.151489,524.105713 702.275269,527.165955 700.868530,530.669373 
z"/>
</svg>